<svg width="269" height="273" viewBox="0 0 269 273" fill="none" xmlns="http://www.w3.org/2000/svg">
<g clip-path="url(#clip0_115_75)">
<path d="M26.9 163.8C41.7565 163.8 53.8 151.577 53.8 136.5C53.8 121.423 41.7565 109.2 26.9 109.2C12.0435 109.2 0 121.423 0 136.5C0 151.577 12.0435 163.8 26.9 163.8Z" fill="#17367C"/>
<path d="M26.9 273C41.7565 273 53.8 260.777 53.8 245.7C53.8 230.623 41.7565 218.4 26.9 218.4C12.0435 218.4 0 230.623 0 245.7C0 260.777 12.0435 273 26.9 273Z" fill="#17367C"/>
<path d="M242.1 163.8C256.956 163.8 269 151.577 269 136.5C269 121.423 256.956 109.2 242.1 109.2C227.244 109.2 215.2 121.423 215.2 136.5C215.2 151.577 227.244 163.8 242.1 163.8Z" fill="#17367C"/>
<path d="M242.1 273C256.956 273 269 260.777 269 245.7C269 230.623 256.956 218.4 242.1 218.4C227.244 218.4 215.2 230.623 215.2 245.7C215.2 260.777 227.244 273 242.1 273Z" fill="#17367C"/>
<path d="M26.9 0C38.1378 0 49.1176 5.46 60.3555 5.46H135.035L135.038 5.46322L135.041 5.4665C146.676 5.7579 156.02 15.4217 156.02 27.3C156.02 28.3709 155.944 29.4237 155.797 30.4534C155.788 30.518 155.837 30.576 155.901 30.576C155.964 30.576 156.013 30.6322 156.005 30.6958L150.9 72.3876C150.549 75.2612 150.529 78.167 150.84 81.0455L153.106 101.956C154.29 112.885 160.325 123.081 161.292 134.033C161.363 134.846 161.4 135.668 161.4 136.5C161.4 137.529 161.344 138.544 161.235 139.543C160.181 149.174 155.226 158.169 154.035 167.784L151.46 188.569C150.915 192.97 150.901 197.422 151.417 201.826L152.372 209.981C153.695 221.27 160.197 231.725 161.274 243.042C161.358 243.916 161.4 244.803 161.4 245.7C161.4 260.777 149.356 273 134.5 273C119.644 273 107.6 260.777 107.6 245.7C107.6 244.722 107.651 243.756 107.75 242.804C109.055 230.247 117.09 218.873 118.756 206.36L119.241 202.716C119.906 197.726 119.887 192.666 119.185 187.682L116.89 171.372C115.371 160.587 109.112 150.679 107.802 139.865C107.669 138.763 107.6 137.639 107.6 136.5C107.6 125.095 112.98 113.904 112.98 102.499C112.98 73.1094 89.3618 49.14 60.4023 49.14C49.1644 49.14 38.1378 54.6 26.9 54.6C12.0436 54.6 0 42.3774 0 27.3C0 12.2226 12.0436 0 26.9 0Z" fill="#2F6CF9"/>
<path d="M241.968 0C256.898 0 269 12.2226 269 27.3C269 42.3774 256.898 54.6 241.968 54.6C231.554 54.5999 221.276 50.1061 210.865 50.3996L161.399 51.7942C159.926 51.8357 158.71 50.6352 158.71 49.14C158.71 25.0162 177.98 5.46 201.75 5.46H209.021C219.88 5.46 230.452 0.271064 241.307 0.00799688C241.528 0.0026764 241.748 6.46284e-07 241.968 0Z" fill="#17367C"/>
</g>
<defs>
<clipPath id="clip0_115_75">
<rect width="269" height="273" fill="white"/>
</clipPath>
</defs>
</svg>
