<svg width="20" height="20" viewBox="0 0 20 20" fill="none" xmlns="http://www.w3.org/2000/svg">
<path d="M16.2503 13.0508C15.6899 12.4519 14.6408 11.5509 14.6408 8.59997C14.6418 7.54098 14.2715 6.51475 13.5936 5.69784C12.9157 4.88093 11.9726 4.32443 10.9265 4.12408V3.52305C10.9265 3.40183 10.9025 3.2818 10.8558 3.16981C10.8092 3.05781 10.7408 2.95605 10.6545 2.87034C10.5683 2.78462 10.466 2.71663 10.3533 2.67024C10.2406 2.62385 10.1199 2.59998 9.99795 2.59998C9.87601 2.59998 9.75526 2.62385 9.64261 2.67024C9.52995 2.71663 9.42758 2.78462 9.34136 2.87034C9.25513 2.95605 9.18673 3.05781 9.14007 3.16981C9.0934 3.2818 9.06938 3.40183 9.06938 3.52305V4.12408C8.02333 4.32443 7.08022 4.88093 6.40232 5.69784C5.72442 6.51475 5.35411 7.54098 5.35511 8.59997C5.35511 11.5509 4.30604 12.4519 3.7456 13.0508C3.58574 13.2203 3.49779 13.4446 3.50004 13.6769C3.50015 13.7983 3.52434 13.9185 3.57122 14.0307C3.61811 14.1428 3.68677 14.2447 3.77328 14.3304C3.85979 14.4161 3.96245 14.4841 4.07539 14.5303C4.18834 14.5766 4.30935 14.6002 4.4315 14.6H15.5685C15.6907 14.6002 15.8117 14.5766 15.9246 14.5303C16.0376 14.4841 16.1402 14.4161 16.2268 14.3304C16.3133 14.2447 16.3819 14.1428 16.4288 14.0307C16.4757 13.9185 16.4999 13.7983 16.5 13.6769C16.5011 13.444 16.4117 13.2197 16.2503 13.0508Z" stroke="#091632" stroke-width="1.2"/>
<path d="M9 3.09998H11V4.09998L10.5 4.64998H10H9.5L9 4.09998V3.09998Z" fill="#091632"/>
<path d="M12 16C12 16.5304 11.7893 17.0391 11.4142 17.4142C11.0391 17.7893 10.5304 18 10 18C9.46957 18 8.96086 17.7893 8.58579 17.4142C8.21071 17.0391 8 16.5304 8 16L10 16H12Z" fill="#091632"/>
</svg>
