<svg width="20" height="20" viewBox="0 0 20 20" fill="none" xmlns="http://www.w3.org/2000/svg">
<path d="M12.9833 9.99993C12.9833 11.6499 11.6499 12.9833 9.99993 12.9833C8.34993 12.9833 7.0166 11.6499 7.0166 9.99993C7.0166 8.34993 8.34993 7.0166 9.99993 7.0166C11.6499 7.0166 12.9833 8.34993 12.9833 9.99993Z" stroke="#091632" stroke-width="1.2" stroke-linecap="round" stroke-linejoin="round"/>
<path d="M9.99987 16.8918C12.9415 16.8918 15.6832 15.1585 17.5915 12.1585C18.3415 10.9835 18.3415 9.00851 17.5915 7.83351C15.6832 4.83351 12.9415 3.10018 9.99987 3.10018C7.0582 3.10018 4.31654 4.83351 2.4082 7.83351C1.6582 9.00851 1.6582 10.9835 2.4082 12.1585C4.31654 15.1585 7.0582 16.8918 9.99987 16.8918Z" stroke="#091632" stroke-width="1.2" stroke-linecap="round" stroke-linejoin="round"/>
</svg>
