<svg width="25" height="25" viewBox="0 0 25 25" fill="none" xmlns="http://www.w3.org/2000/svg">
<mask id="mask0_123_242" style="mask-type:luminance" maskUnits="userSpaceOnUse" x="0" y="0" width="25" height="25">
<path d="M24.7599 10.181H12.7663V14.9868H19.6579C19.5471 15.667 19.2983 16.336 18.9341 16.9461C18.5167 17.6451 18.0007 18.1773 17.4718 18.5825C15.8876 19.7965 14.0406 20.0447 12.7579 20.0447C9.51761 20.0447 6.74899 17.9505 5.6772 15.1048C5.63395 15.0015 5.60523 14.8948 5.57025 14.7894C5.33341 14.0651 5.204 13.2981 5.204 12.5008C5.204 11.6711 5.34414 10.8768 5.59965 10.1267C6.60749 7.16814 9.43853 4.9584 12.7602 4.9584C13.4284 4.9584 14.0718 5.03793 14.6819 5.19655C16.0763 5.55907 17.0626 6.27304 17.667 6.83779L21.3138 3.26641C19.0955 1.23247 16.2037 3.07518e-09 12.7542 3.07518e-09C9.99651 -5.93534e-05 7.45052 0.859147 5.36417 2.31123C3.6722 3.48884 2.28454 5.0655 1.34805 6.89662C0.47697 8.59444 0 10.4759 0 12.4989C0 14.522 0.477699 16.423 1.34878 18.1052V18.1165C2.26885 19.9023 3.61432 21.4399 5.24959 22.6121C6.67817 23.6361 9.23976 25 12.7542 25C14.7752 25 16.5664 24.6356 18.1461 23.9527C19.2857 23.4601 20.2953 22.8176 21.2095 21.9919C22.4173 20.9008 23.3633 19.5512 24.009 17.9984C24.6546 16.4457 25 14.6898 25 12.7861C25 11.8995 24.9109 10.9992 24.7599 10.1809V10.181Z" fill="white"/>
</mask>
<g mask="url(#mask0_123_242)">
<g filter="url(#filter0_f_123_242)">
<path d="M-0.144287 12.5533C-0.13103 14.5444 0.436338 16.5988 1.29514 18.2572V18.2686C1.91567 19.473 2.76376 20.4243 3.72971 21.367L9.56382 19.2382C8.46004 18.6776 8.29162 18.334 7.50038 17.7071C6.69182 16.8918 6.08919 15.9558 5.71389 14.8582H5.69877L5.71389 14.8468C5.46699 14.1221 5.44264 13.3528 5.43353 12.5533H-0.144287Z" fill="url(#paint0_radial_123_242)"/>
</g>
<g filter="url(#filter1_f_123_242)">
<path d="M12.806 -0.12146C12.2294 1.90437 12.4499 3.87353 12.806 5.01929C13.4719 5.01978 14.1134 5.09915 14.7216 5.25729C16.116 5.6198 17.1023 6.3338 17.7067 6.89855L21.4468 3.23593C19.2311 1.20441 16.5647 -0.118259 12.806 -0.12146Z" fill="url(#paint1_radial_123_242)"/>
</g>
<g filter="url(#filter2_f_123_242)">
<path d="M12.7935 -0.137482C9.96502 -0.137543 7.35368 0.743722 5.21377 2.23309C4.41922 2.7861 3.69008 3.42491 3.04082 4.13528C2.87073 5.73097 4.31407 7.69223 7.17233 7.676C8.55913 6.06282 10.6102 5.0191 12.893 5.0191C12.8951 5.0191 12.8971 5.01927 12.8992 5.01928L12.806 -0.137117C12.8018 -0.137119 12.7977 -0.137482 12.7935 -0.137482Z" fill="url(#paint2_radial_123_242)"/>
</g>
<g filter="url(#filter3_f_123_242)">
<path d="M22.129 13.1307L19.6044 14.865C19.4936 15.5452 19.2447 16.2143 18.8804 16.8243C18.463 17.5233 17.9471 18.0555 17.4182 18.4608C15.8372 19.6722 13.9951 19.9217 12.7128 19.9227C11.3873 22.1802 11.1549 23.3109 12.806 25.1329C14.849 25.1314 16.6603 24.7627 18.2579 24.072C19.4127 23.5728 20.4359 22.9217 21.3623 22.0848C22.5863 20.9791 23.5451 19.6113 24.1995 18.0378C24.8538 16.4642 25.2037 14.6848 25.2037 12.7556L22.129 13.1307Z" fill="url(#paint3_radial_123_242)"/>
</g>
<g filter="url(#filter4_f_123_242)">
<path d="M12.6196 9.96783V15.1389H24.766C24.8728 14.4307 25.2261 13.5143 25.2261 12.7556C25.2261 11.869 25.1371 10.7861 24.9861 9.96783H12.6196Z" fill="#3086FF"/>
</g>
<g filter="url(#filter5_f_123_242)">
<path d="M3.0988 3.95273C2.34924 4.77285 1.70888 5.69079 1.20116 6.68354C0.330098 8.38136 -0.146851 10.4454 -0.146851 12.4684C-0.146851 12.4969 -0.144491 12.5248 -0.144301 12.5533C0.241466 13.2929 5.18437 13.1513 5.43351 12.5533C5.4332 12.5254 5.43006 12.4982 5.43006 12.4702C5.43006 11.6405 5.57024 11.0289 5.82575 10.2788C6.14095 9.35347 6.63449 8.5014 7.26559 7.76728C7.40865 7.58463 7.79026 7.19198 7.90159 6.95646C7.944 6.86675 7.82459 6.8164 7.81791 6.78482C7.81045 6.74951 7.65035 6.77791 7.61449 6.7516C7.50061 6.66807 7.27511 6.62445 7.13817 6.58568C6.8455 6.50281 6.36044 6.32005 6.09102 6.13061C5.23941 5.53177 3.9104 4.81647 3.0988 3.95273Z" fill="url(#paint4_radial_123_242)"/>
</g>
<g filter="url(#filter6_f_123_242)">
<path d="M6.10933 6.78836C8.08412 7.9846 8.65204 6.18455 9.96501 5.62128L7.68106 0.884979C6.8409 1.2381 6.04711 1.67682 5.3106 2.18942C4.21069 2.95496 3.23938 3.88913 2.43701 4.95223L6.10933 6.78836Z" fill="url(#paint5_radial_123_242)"/>
</g>
<g filter="url(#filter7_f_123_242)">
<path d="M6.91309 18.8724C4.26218 19.8294 3.84716 19.8637 3.60315 21.5066C4.06945 21.9616 4.57046 22.3825 5.10286 22.7641C6.53144 23.7882 9.27942 25.152 12.7938 25.152C12.798 25.152 12.8019 25.1517 12.806 25.1517V19.8314C12.8034 19.8314 12.8003 19.8316 12.7977 19.8316C11.4816 19.8316 10.43 19.4859 9.35174 18.8848C9.08589 18.7366 8.60357 19.1346 8.35838 18.9567C8.02022 18.7113 7.20639 19.1681 6.91309 18.8724Z" fill="url(#paint6_radial_123_242)"/>
</g>
<g opacity="0.5" filter="url(#filter8_f_123_242)">
<path d="M11.2535 19.6638V25.0595C11.7453 25.1171 12.257 25.152 12.7938 25.152C13.332 25.152 13.8526 25.1244 14.3586 25.0736V19.7002C13.7916 19.7971 13.2576 19.8316 12.7977 19.8316C12.2679 19.8316 11.7527 19.7699 11.2535 19.6638Z" fill="url(#paint7_linear_123_242)"/>
</g>
</g>
<defs>
<filter id="filter0_f_123_242" x="-0.614366" y="12.0832" width="10.6483" height="9.75388" filterUnits="userSpaceOnUse" color-interpolation-filters="sRGB">
<feFlood flood-opacity="0" result="BackgroundImageFix"/>
<feBlend mode="normal" in="SourceGraphic" in2="BackgroundImageFix" result="shape"/>
<feGaussianBlur stdDeviation="0.23504" result="effect1_foregroundBlur_123_242"/>
</filter>
<filter id="filter1_f_123_242" x="11.9814" y="-0.591539" width="9.93546" height="7.96018" filterUnits="userSpaceOnUse" color-interpolation-filters="sRGB">
<feFlood flood-opacity="0" result="BackgroundImageFix"/>
<feBlend mode="normal" in="SourceGraphic" in2="BackgroundImageFix" result="shape"/>
<feGaussianBlur stdDeviation="0.23504" result="effect1_foregroundBlur_123_242"/>
</filter>
<filter id="filter2_f_123_242" x="2.55726" y="-0.607561" width="10.812" height="8.75373" filterUnits="userSpaceOnUse" color-interpolation-filters="sRGB">
<feFlood flood-opacity="0" result="BackgroundImageFix"/>
<feBlend mode="normal" in="SourceGraphic" in2="BackgroundImageFix" result="shape"/>
<feGaussianBlur stdDeviation="0.23504" result="effect1_foregroundBlur_123_242"/>
</filter>
<filter id="filter3_f_123_242" x="11.1725" y="12.2855" width="14.5013" height="13.3175" filterUnits="userSpaceOnUse" color-interpolation-filters="sRGB">
<feFlood flood-opacity="0" result="BackgroundImageFix"/>
<feBlend mode="normal" in="SourceGraphic" in2="BackgroundImageFix" result="shape"/>
<feGaussianBlur stdDeviation="0.23504" result="effect1_foregroundBlur_123_242"/>
</filter>
<filter id="filter4_f_123_242" x="12.1495" y="9.49776" width="13.5467" height="6.11118" filterUnits="userSpaceOnUse" color-interpolation-filters="sRGB">
<feFlood flood-opacity="0" result="BackgroundImageFix"/>
<feBlend mode="normal" in="SourceGraphic" in2="BackgroundImageFix" result="shape"/>
<feGaussianBlur stdDeviation="0.23504" result="effect1_foregroundBlur_123_242"/>
</filter>
<filter id="filter5_f_123_242" x="-0.61693" y="3.48265" width="8.99771" height="10.0437" filterUnits="userSpaceOnUse" color-interpolation-filters="sRGB">
<feFlood flood-opacity="0" result="BackgroundImageFix"/>
<feBlend mode="normal" in="SourceGraphic" in2="BackgroundImageFix" result="shape"/>
<feGaussianBlur stdDeviation="0.23504" result="effect1_foregroundBlur_123_242"/>
</filter>
<filter id="filter6_f_123_242" x="-0.867838" y="-2.41987" width="14.1377" height="12.9151" filterUnits="userSpaceOnUse" color-interpolation-filters="sRGB">
<feFlood flood-opacity="0" result="BackgroundImageFix"/>
<feBlend mode="normal" in="SourceGraphic" in2="BackgroundImageFix" result="shape"/>
<feGaussianBlur stdDeviation="1.65243" result="effect1_foregroundBlur_123_242"/>
</filter>
<filter id="filter7_f_123_242" x="3.13307" y="18.381" width="10.143" height="7.24115" filterUnits="userSpaceOnUse" color-interpolation-filters="sRGB">
<feFlood flood-opacity="0" result="BackgroundImageFix"/>
<feBlend mode="normal" in="SourceGraphic" in2="BackgroundImageFix" result="shape"/>
<feGaussianBlur stdDeviation="0.23504" result="effect1_foregroundBlur_123_242"/>
</filter>
<filter id="filter8_f_123_242" x="10.7835" y="19.1937" width="4.0452" height="6.42835" filterUnits="userSpaceOnUse" color-interpolation-filters="sRGB">
<feFlood flood-opacity="0" result="BackgroundImageFix"/>
<feBlend mode="normal" in="SourceGraphic" in2="BackgroundImageFix" result="shape"/>
<feGaussianBlur stdDeviation="0.23504" result="effect1_foregroundBlur_123_242"/>
</filter>
<radialGradient id="paint0_radial_123_242" cx="0" cy="0" r="1" gradientTransform="matrix(-0.519502 -12.4499 18.6782 -0.747108 9.44703 21.1794)" gradientUnits="userSpaceOnUse">
<stop offset="0.141612" stop-color="#1ABD4D"/>
<stop offset="0.247515" stop-color="#6EC30D"/>
<stop offset="0.311547" stop-color="#8AC502"/>
<stop offset="0.366013" stop-color="#A2C600"/>
<stop offset="0.445673" stop-color="#C8C903"/>
<stop offset="0.540305" stop-color="#EBCB03"/>
<stop offset="0.615636" stop-color="#F7CD07"/>
<stop offset="0.699345" stop-color="#FDCD04"/>
<stop offset="0.771242" stop-color="#FDCE05"/>
<stop offset="0.860566" stop-color="#FFCE0A"/>
</radialGradient>
<radialGradient id="paint1_radial_123_242" cx="0" cy="0" r="1" gradientTransform="matrix(8.82257 -2.12038e-05 -1.24005e-05 11.1555 21.0969 6.63354)" gradientUnits="userSpaceOnUse">
<stop offset="0.408458" stop-color="#FB4E5A"/>
<stop offset="1" stop-color="#FF4540"/>
</radialGradient>
<radialGradient id="paint2_radial_123_242" cx="0" cy="0" r="1" gradientTransform="matrix(-12.3611 6.70304 9.29037 16.4229 16.2788 -1.75228)" gradientUnits="userSpaceOnUse">
<stop offset="0.231273" stop-color="#FF4541"/>
<stop offset="0.311547" stop-color="#FF4540"/>
<stop offset="0.457516" stop-color="#FF4640"/>
<stop offset="0.540305" stop-color="#FF473F"/>
<stop offset="0.699346" stop-color="#FF5138"/>
<stop offset="0.771242" stop-color="#FF5B33"/>
<stop offset="0.860566" stop-color="#FF6C29"/>
<stop offset="1" stop-color="#FF8C18"/>
</radialGradient>
<radialGradient id="paint3_radial_123_242" cx="0" cy="0" r="1" gradientTransform="matrix(-22.4171 -28.6507 -10.8017 8.10158 12.9898 23.5149)" gradientUnits="userSpaceOnUse">
<stop offset="0.131546" stop-color="#0CBA65"/>
<stop offset="0.209784" stop-color="#0BB86D"/>
<stop offset="0.297297" stop-color="#09B479"/>
<stop offset="0.396257" stop-color="#08AD93"/>
<stop offset="0.477124" stop-color="#0AA6A9"/>
<stop offset="0.568425" stop-color="#0D9CC6"/>
<stop offset="0.667385" stop-color="#1893DD"/>
<stop offset="0.768727" stop-color="#258BF1"/>
<stop offset="0.858506" stop-color="#3086FF"/>
</radialGradient>
<radialGradient id="paint4_radial_123_242" cx="0" cy="0" r="1" gradientTransform="matrix(-1.58641 13.3877 18.9064 2.14759 11.7105 2.2237)" gradientUnits="userSpaceOnUse">
<stop offset="0.366013" stop-color="#FF4E3A"/>
<stop offset="0.457516" stop-color="#FF8A1B"/>
<stop offset="0.540305" stop-color="#FFA312"/>
<stop offset="0.615636" stop-color="#FFB60C"/>
<stop offset="0.771242" stop-color="#FFCD0A"/>
<stop offset="0.860566" stop-color="#FECF0A"/>
<stop offset="0.915033" stop-color="#FECF08"/>
<stop offset="1" stop-color="#FDCD01"/>
</radialGradient>
<radialGradient id="paint5_radial_123_242" cx="0" cy="0" r="1" gradientTransform="matrix(-4.58555 4.96539 -14.3044 -12.6631 9.47964 2.08483)" gradientUnits="userSpaceOnUse">
<stop offset="0.315904" stop-color="#FF4C3C"/>
<stop offset="0.603818" stop-color="#FF692C"/>
<stop offset="0.726837" stop-color="#FF7825"/>
<stop offset="0.884534" stop-color="#FF8D1B"/>
<stop offset="1" stop-color="#FF9F13"/>
</radialGradient>
<radialGradient id="paint6_radial_123_242" cx="0" cy="0" r="1" gradientTransform="matrix(-12.3611 -6.70304 9.29037 -16.4229 16.2789 26.6909)" gradientUnits="userSpaceOnUse">
<stop offset="0.231273" stop-color="#0FBC5F"/>
<stop offset="0.311547" stop-color="#0FBC5F"/>
<stop offset="0.366013" stop-color="#0FBC5E"/>
<stop offset="0.457516" stop-color="#0FBC5D"/>
<stop offset="0.540305" stop-color="#12BC58"/>
<stop offset="0.699346" stop-color="#28BF3C"/>
<stop offset="0.771242" stop-color="#38C02B"/>
<stop offset="0.860566" stop-color="#52C218"/>
<stop offset="0.915033" stop-color="#67C30F"/>
<stop offset="1" stop-color="#86C504"/>
</radialGradient>
<linearGradient id="paint7_linear_123_242" x1="11.2535" y1="22.4079" x2="14.3586" y2="22.4079" gradientUnits="userSpaceOnUse">
<stop stop-color="#0FBC5C"/>
<stop offset="1" stop-color="#0CBA65"/>
</linearGradient>
</defs>
</svg>
