<svg width="20" height="20" viewBox="0 0 20 20" fill="none" xmlns="http://www.w3.org/2000/svg">
<path d="M10.8333 13.75H9.16667C8.47501 13.75 7.91667 14.3083 7.91667 15V17.9167H12.0833V15C12.0833 14.3083 11.525 13.75 10.8333 13.75Z" stroke="white" stroke-width="1.2" stroke-miterlimit="10" stroke-linejoin="round"/>
<path d="M8.39168 2.34998L2.61668 6.97498C1.96668 7.49164 1.55001 8.58331 1.69168 9.39998L2.80001 16.0333C3.00001 17.2166 4.13335 18.175 5.33335 18.175H14.6667C15.8583 18.175 17 17.2083 17.2 16.0333L18.3083 9.39998C18.4417 8.58331 18.025 7.49164 17.3833 6.97498L11.6083 2.35831C10.7167 1.64164 9.27501 1.64164 8.39168 2.34998Z" stroke="white" stroke-width="1.2" stroke-linecap="round" stroke-linejoin="round"/>
</svg>
